HIERARCHY
ROOT Hips
{
	OFFSET -0.001795 -0.223333 0.028219
	CHANNELS 6 Xposition Yposition Zposition Zrotation Yrotation Xrotation 
	JOINT LeftUpLeg
	{
		OFFSET 0.069520 -0.091406 -0.006815
		CHANNELS 3 Zrotation Yrotation Xrotation
		JOINT LeftLeg
		{
			OFFSET 0.034277 -0.375199 -0.004496
			CHANNELS 3 Zrotation Yrotation Xrotation
			JOINT LeftFoot
			{
				OFFSET -0.013596 -0.397961 -0.043693
				CHANNELS 3 Zrotation Yrotation Xrotation
				JOINT LeftToe
				{
					OFFSET 0.026358 -0.055791 0.119288
					CHANNELS 3 Zrotation Yrotation Xrotation
					End Site
					{
						OFFSET 0.000000 0.000000 0.000000
					}
				}
			}
		}
	}
	JOINT RightUpLeg
	{
		OFFSET -0.067670 -0.090522 -0.004320
		CHANNELS 3 Zrotation Yrotation Xrotation
		JOINT RightLeg
		{
			OFFSET -0.038290 -0.382569 -0.008850
			CHANNELS 3 Zrotation Yrotation Xrotation
			JOINT RightFoot
			{
				OFFSET 0.015774 -0.398415 -0.042312
				CHANNELS 3 Zrotation Yrotation Xrotation
				JOINT RightToe
				{
					OFFSET -0.025372 -0.048144 0.123348
					CHANNELS 3 Zrotation Yrotation Xrotation
					End Site
					{
						OFFSET 0.000000 0.000000 0.000000
					}
				}
			}
		}
	}
	JOINT Spine
	{
		OFFSET -0.002533 0.108963 -0.026696
		CHANNELS 3 Zrotation Yrotation Xrotation
		JOINT Spine1
		{
			OFFSET 0.005487 0.135180 0.001092
			CHANNELS 3 Zrotation Yrotation Xrotation
			JOINT Spine2
			{
				OFFSET 0.001457 0.052922 0.025425
				CHANNELS 3 Zrotation Yrotation Xrotation
				JOINT Neck
				{
					OFFSET -0.002778 0.213870 -0.042857
					CHANNELS 3 Zrotation Yrotation Xrotation
					JOINT Head
					{
						OFFSET 0.005152 0.064970 0.051349
						CHANNELS 3 Zrotation Yrotation Xrotation
						End Site
						{
							OFFSET 0.000000 0.000000 0.000000
						}
					}
				}
				JOINT LeftShoulder
				{
					OFFSET 0.078845 0.121749 -0.034090
					CHANNELS 3 Zrotation Yrotation Xrotation
					JOINT LeftArm
					{
						OFFSET 0.090977 0.030469 -0.008868
						CHANNELS 3 Zrotation Yrotation Xrotation
						JOINT LeftForeArm
						{
							OFFSET 0.259612 -0.012772 -0.027456
							CHANNELS 3 Zrotation Yrotation Xrotation
							JOINT LeftHand
							{
								OFFSET 0.249234 0.008986 -0.001171
								CHANNELS 3 Zrotation Yrotation Xrotation
								End Site
								{
									OFFSET 0.000000 0.000000 0.000000
								}
							}
						}
					}
				}
				JOINT RightShoulder
				{
					OFFSET -0.081759 0.118833 -0.038615
					CHANNELS 3 Zrotation Yrotation Xrotation
					JOINT RightArm
					{
						OFFSET -0.096012 0.032551 -0.009143
						CHANNELS 3 Zrotation Yrotation Xrotation
						JOINT RightForeArm
						{
							OFFSET -0.253742 -0.013329 -0.021401
							CHANNELS 3 Zrotation Yrotation Xrotation
							JOINT RightHand
							{
								OFFSET -0.255298 0.007772 -0.005559
								CHANNELS 3 Zrotation Yrotation Xrotation
								End Site
								{
									OFFSET 0.000000 0.000000 0.000000
								}
							}
						}
					}
				}
			}
		}
	}
}
MOTION
Frames: 12
Frame Time: 0.050000
0.000000 0.965039 0.000000 -0.868815 -1.760121 0.158640 0.132495 0.895268 9.609708 0.078484 0.369271 -10.558859 7.821790 17.449241 21.553416 0.000000 0.000000 0.000000 -1.155436 -0.494970 5.983924 0.649574 -0.250638 -5.534796 -2.565446 -11.850189 20.916119 0.000000 0.000000 0.000000 5.045287 -0.289657 2.917853 -4.867835 1.748869 -24.634093 -1.240410 4.939436 26.905070 8.194292 -3.625095 -19.266935 0.000000 0.000000 0.000000 18.430660 2.342977 0.744342 -2.627374 -11.808290 -0.885384 12.306694 0.100887 -0.024801 0.000000 0.000000 0.000000 -10.177004 -11.749225 -3.277555 2.684010 7.193205 -0.699470 -7.225360 5.230955 0.026284 0.000000 0.000000 0.000000 
0.000537 0.963937 0.000428 -1.355009 -2.611264 0.030262 0.398380 0.972338 10.536753 0.354997 0.437085 -12.177909 8.513961 18.309488 23.055414 0.000000 0.000000 0.000000 -0.847887 -0.580093 6.758643 0.001829 -0.242281 -6.297631 -0.640039 -8.805117 20.077911 0.000000 0.000000 0.000000 5.688158 -0.313414 2.992676 -5.510978 1.904628 -24.092584 -1.311253 4.876106 25.834579 7.501172 -3.225091 -19.198542 0.000000 0.000000 0.000000 19.018696 1.818857 0.801332 -2.154538 -8.989984 -0.706107 9.538992 -1.904463 -0.102911 0.000000 0.000000 0.000000 -8.767532 -11.143284 -3.120631 0.782421 6.444333 -0.491223 -4.832193 7.207005 0.034815 0.000000 0.000000 0.000000 
0.000773 0.963772 0.000481 -1.197367 -4.167904 -0.252469 0.124787 1.088171 11.090760 0.904068 0.424758 -11.735434 7.542570 16.886093 22.289342 0.000000 0.000000 0.000000 -1.396526 -0.514148 6.792887 0.538135 -0.254543 -6.096787 -0.297886 -8.390552 19.558812 0.000000 0.000000 0.000000 5.755687 -0.344267 3.408728 -5.416724 1.831616 -25.611219 -1.330915 6.965959 27.832513 8.680779 -3.683521 -20.381228 0.000000 0.000000 0.000000 19.578907 2.799564 0.765630 -2.760658 -10.456283 -0.834763 8.291421 -1.871935 -0.089858 0.000000 0.000000 0.000000 -6.852152 -12.324670 -3.817460 0.751997 7.738991 -0.581608 -5.810089 7.609105 0.001880 0.000000 0.000000 0.000000 
0.000957 0.964572 0.000594 -1.067457 -4.560106 -0.930026 -0.294560 1.256602 12.167486 0.754159 0.442615 -12.001458 8.375516 17.934974 21.922492 0.000000 0.000000 0.000000 -1.976083 -0.544151 7.976386 1.226847 -0.297350 -6.694709 0.022616 -7.872358 19.311824 0.000000 0.000000 0.000000 5.769384 -0.368346 3.835752 -5.270793 1.798288 -25.738805 -1.325753 7.189778 28.724856 8.602507 -3.686915 -20.254547 0.000000 0.000000 0.000000 19.855270 2.468023 0.783781 -3.765157 -8.838223 -0.835721 7.322271 -2.935545 -0.105725 0.000000 0.000000 0.000000 -6.487499 -11.958794 -3.752779 -0.677640 7.474109 -0.451864 -4.368485 6.778152 0.059732 0.000000 0.000000 0.000000 
0.000878 0.964898 0.000610 -0.820561 -4.323429 -0.886747 -0.500806 1.274640 12.160679 0.983361 0.448428 -12.198098 7.771165 17.177881 22.236485 0.000000 0.000000 0.000000 -1.942695 -0.549208 7.961394 0.837261 -0.281687 -6.635509 -0.231395 -8.180580 19.079525 0.000000 0.000000 0.000000 5.230279 -0.354884 3.882800 -4.965594 1.727419 -25.751040 -1.529894 7.016917 27.856274 8.444721 -3.775984 -18.983706 0.000000 0.000000 0.000000 19.772032 2.090016 0.886024 -4.179371 -9.038093 -0.863910 7.116281 -3.832269 -0.130328 0.000000 0.000000 0.000000 -6.745311 -11.723401 -3.632504 0.208030 7.017358 -0.489692 -3.752867 7.782608 0.078586 0.000000 0.000000 0.000000 
0.000746 0.965046 0.000581 -0.758300 -4.356279 -0.795076 -0.603157 1.284583 12.137179 1.152253 0.439245 -12.047905 7.387819 16.644887 21.630412 0.000000 0.000000 0.000000 -2.087456 -0.529042 7.899489 0.933894 -0.284290 -6.600046 -0.100713 -7.914406 18.863380 0.000000 0.000000 0.000000 5.240287 -0.317286 3.417451 -4.933088 1.721590 -25.599915 -1.592228 6.916050 28.032564 8.776376 -3.940635 -19.454333 0.000000 0.000000 0.000000 19.952357 2.036803 0.878155 -5.119582 -9.173560 -0.936824 7.306476 -3.906366 -0.136681 0.000000 0.000000 0.000000 -7.559286 -11.751573 -3.554862 1.404081 7.548243 -0.616329 -3.693252 7.865569 0.084054 0.000000 0.000000 0.000000 
0.000540 0.964934 0.000457 -0.669202 -4.464682 -0.854980 -0.498761 1.270117 12.085025 1.011487 0.444831 -12.107206 7.259423 16.499130 22.330095 0.000000 0.000000 0.000000 -2.062201 -0.522468 7.801449 0.622057 -0.268491 -6.498126 0.035141 -7.769447 19.055561 0.000000 0.000000 0.000000 5.069611 -0.333514 3.694122 -4.731450 1.675221 -25.479346 -1.698723 6.696497 27.620471 8.572685 -3.864977 -19.277148 0.000000 0.000000 0.000000 19.389344 1.861178 0.840708 -5.330262 -8.798085 -0.939352 6.975509 -3.950214 -0.121252 0.000000 0.000000 0.000000 -7.183645 -11.514482 -3.481995 1.405535 7.698806 -0.621984 -3.574120 8.010917 0.085584 0.000000 0.000000 0.000000 
0.000375 0.964843 0.000335 -0.765406 -4.463262 -0.845001 -0.342145 1.247672 12.042370 0.969477 0.446564 -12.134339 7.283961 16.540067 22.504194 0.000000 0.000000 0.000000 -1.928448 -0.532304 7.748819 0.462318 -0.261670 -6.482088 0.226401 -7.504321 19.207396 0.000000 0.000000 0.000000 5.151402 -0.347103 3.820377 -4.613154 1.647776 -25.452259 -1.859574 6.663845 27.452609 8.788688 -3.973182 -19.493167 0.000000 0.000000 0.000000 19.033348 1.761807 0.841904 -5.524689 -8.671353 -0.949004 6.464927 -4.146452 -0.107452 0.000000 0.000000 0.000000 -6.896621 -11.498534 -3.499332 1.700714 8.244948 -0.671890 -3.181003 7.848236 0.102982 0.000000 0.000000 0.000000 
0.000281 0.964857 0.000249 -0.773981 -4.468779 -0.851311 -0.340723 1.257828 12.135413 0.910729 0.460944 -12.403108 7.487354 16.818464 22.818722 0.000000 0.000000 0.000000 -1.827701 -0.546975 7.812816 0.306159 -0.262288 -6.702218 0.223164 -7.591919 19.490331 0.000000 0.000000 0.000000 5.128987 -0.351313 3.881072 -4.510110 1.622250 -25.586875 -1.835451 6.708829 27.547168 8.688822 -3.900746 -19.505809 0.000000 0.000000 0.000000 18.666801 1.404691 0.883995 -5.835272 -8.580344 -0.972727 6.304748 -4.113965 -0.100577 0.000000 0.000000 0.000000 -6.450472 -11.283549 -3.482288 1.657134 8.857572 -0.702304 -3.173070 7.671652 0.102530 0.000000 0.000000 0.000000 
0.000245 0.964958 0.000227 -0.796623 -4.271210 -0.846096 -0.309940 1.245705 12.099555 0.847511 0.473255 -12.673625 7.770217 17.229262 23.501498 0.000000 0.000000 0.000000 -1.601549 -0.573327 7.819328 0.141471 -0.260504 -6.817994 -0.138253 -8.223231 19.804829 0.000000 0.000000 0.000000 5.135373 -0.343265 3.776211 -4.489466 1.620090 -25.568291 -1.888951 6.615068 27.445959 8.738316 -3.953414 -19.356976 0.000000 0.000000 0.000000 18.381187 1.109413 0.934621 -6.031882 -8.536846 -0.985001 6.097817 -4.519524 -0.103811 0.000000 0.000000 0.000000 -6.138691 -11.019187 -3.429933 1.806752 9.084017 -0.722737 -2.891011 7.971644 0.115317 0.000000 0.000000 0.000000 
0.000316 0.964956 0.000247 -0.883670 -4.178441 -0.964460 -0.223454 1.246889 12.225138 0.897427 0.474790 -12.732017 7.752895 17.224785 23.620299 0.000000 0.000000 0.000000 -1.517005 -0.603793 8.076768 0.158627 -0.267514 -6.997573 -0.140440 -8.226837 19.868615 0.000000 0.000000 0.000000 5.192166 -0.343989 3.783948 -4.427332 1.606893 -25.631838 -1.820928 6.657409 27.393052 8.778431 -3.959000 -19.383019 0.000000 0.000000 0.000000 18.153952 0.803812 0.999882 -6.409805 -8.603418 -1.013724 6.294554 -4.928426 -0.124832 0.000000 0.000000 0.000000 -5.950057 -10.705038 -3.357163 2.030191 9.290283 -0.746239 -2.800537 8.291434 0.121870 0.000000 0.000000 0.000000 
0.000459 0.964731 0.000264 -1.006887 -4.014012 -1.091979 -0.162752 1.247124 12.335618 1.046134 0.470430 -12.698329 7.728318 17.208878 23.482741 0.000000 0.000000 0.000000 -1.354055 -0.644150 8.335024 0.187863 -0.266087 -6.896959 -0.268668 -8.244456 19.280472 0.000000 0.000000 0.000000 5.315520 -0.343713 3.753321 -4.400969 1.604336 -25.504118 -1.727955 6.569384 27.199372 8.959280 -4.068903 -19.405297 0.000000 0.000000 0.000000 17.893830 0.636374 1.034182 -6.765648 -8.806033 -1.039085 6.006405 -5.324098 -0.122054 0.000000 0.000000 0.000000 -5.870086 -10.536687 -3.309464 2.267327 9.491617 -0.767725 -2.606836 8.857423 0.135833 0.000000 0.000000 0.000000 
